<svg xmlns="http://www.w3.org/2000/svg" width="16" height="17" viewBox="0 0 16 17">
  <g id="Group_89934" data-name="Group 89934" transform="translate(-323 -295)">
    <ellipse id="Ellipse_182" data-name="Ellipse 182" cx="8" cy="8.5" rx="8" ry="8.5" transform="translate(323 295)" fill="#156cc2"/>
    <path id="Icon_awesome-linkedin-in" data-name="Icon awesome-linkedin-in" d="M1.851,8.271H.137V2.749H1.851ZM.993,2a1,1,0,1,1,.993-1A1,1,0,0,1,.993,2ZM8.268,8.271H6.557V5.583c0-.641-.013-1.462-.891-1.462s-1.028.7-1.028,1.416V8.271H2.925V2.749H4.57V3.5h.024a1.8,1.8,0,0,1,1.622-.892c1.735,0,2.054,1.143,2.054,2.627V8.271Z" transform="translate(327.011 299.243)" fill="#fff"/>
  </g>
</svg>
