<svg xmlns="http://www.w3.org/2000/svg" xmlns:xlink="http://www.w3.org/1999/xlink" width="16.756" height="16.756" viewBox="0 0 16.756 16.756">
  <defs>
    <clipPath id="clip-path">
      <ellipse id="Ellipse_528" data-name="Ellipse 528" cx="8.378" cy="8.378" rx="8.378" ry="8.378" transform="translate(0)" fill="#373737"/>
    </clipPath>
    <linearGradient id="linear-gradient" x1="0.854" y1="0.146" x2="0.146" y2="0.854" gradientUnits="objectBoundingBox">
      <stop offset="0" stop-color="#60fc7c"/>
      <stop offset="1" stop-color="#4ab161"/>
    </linearGradient>
  </defs>
  <g id="Group_89935" data-name="Group 89935" transform="translate(-343.244 -295)">
    <g id="Mask_Group_51" data-name="Mask Group 51" transform="translate(343.244 295)" clip-path="url(#clip-path)">
      <g id="Group_5981" data-name="Group 5981" transform="translate(-2.568 -2.602)">
        <ellipse id="Ellipse_527" data-name="Ellipse 527" cx="8.378" cy="8.378" rx="8.378" ry="8.378" transform="translate(0 6.412) rotate(-22.5)" fill="url(#linear-gradient)"/>
        <path id="Path_8359" data-name="Path 8359" d="M126.392,117.721l.7-2.606a4.825,4.825,0,1,1,1.921,1.9Zm2.75-1.678.165.1a3.916,3.916,0,1,0-1.34-1.328l.1.166-.39,1.455Z" transform="translate(-119.972 -102.034)" fill="#fff"/>
        <path id="Path_8360" data-name="Path 8360" d="M135.013,115.407a.808.808,0,0,0-.689-.155c-.179.073-.293.353-.41.5a.171.171,0,0,1-.222.048,3.122,3.122,0,0,1-1.558-1.335.191.191,0,0,1,.025-.261,1.048,1.048,0,0,0,.283-.46,1.006,1.006,0,0,0-.126-.544,1.289,1.289,0,0,0-.4-.605.551.551,0,0,0-.6.089,1.213,1.213,0,0,0-.42.961,1.36,1.36,0,0,0,.038.3,2.534,2.534,0,0,0,.292.674,5.315,5.315,0,0,0,.305.464,4.712,4.712,0,0,0,1.324,1.23,4.015,4.015,0,0,0,.826.393,1.844,1.844,0,0,0,.962.152,1.165,1.165,0,0,0,.872-.649.564.564,0,0,0,.041-.331C135.506,115.653,135.2,115.517,135.013,115.407Z" transform="translate(-121.895 -103.982)" fill="#fff" fill-rule="evenodd"/>
      </g>
    </g>
  </g>
</svg>
